<?xml version="1.0" standalone="no"?>
<svg xmlns="http://www.w3.org/2000/svg" xmlns:xlink="http://www.w3.org/1999/xlink" width="708pt" height="724pt" viewBox="0.00 0.00 707.9 724.27">
<g id="graph0" class="graph" transform="translate(4,720.27001953125) scale(1)" data-name="PRISMA">

<polygon fill="white" stroke="none" points="-4,4 -4,-720.27 703.9,-720.27 703.9,4 -4,4"/>
<!-- A -->
<g id="node1" class="node" pointer-events="visible" data-name="A">

<ellipse fill="white" stroke="black" cx="210.05" cy="-677.8" rx="210.11" ry="38.43"/>
<text text-anchor="middle" x="210.05" y="-681.1" font-family="Helvetica,sans-Serif" font-size="11.00">Documents identified through OpenAlex database scan</text>
<text text-anchor="middle" x="210.05" y="-667.9" font-family="Helvetica,sans-Serif" font-size="11.00">(n = 3200)</text>
</g>
<!-- B -->
<g id="node2" class="node" pointer-events="visible" data-name="B">

<ellipse fill="white" stroke="black" cx="210.05" cy="-555.54" rx="179.17" ry="38.43"/>
<text text-anchor="middle" x="210.05" y="-558.84" font-family="Helvetica,sans-Serif" font-size="11.00">Documents screened at title and abstract level</text>
<text text-anchor="middle" x="210.05" y="-545.64" font-family="Helvetica,sans-Serif" font-size="11.00">(n = 3200)</text>
</g>
<!-- A&#45;&gt;B -->
<g id="edge1" class="edge" data-name="A-&gt;B">

<path fill="none" stroke="black" d="M210.05,-639.08C210.05,-628.45 210.05,-616.72 210.05,-605.53"/>
<polygon fill="black" stroke="black" points="213.55,-605.64 210.05,-595.64 206.55,-605.64 213.55,-605.64"/>
</g>
<!-- C -->
<g id="node3" class="node" pointer-events="visible" data-name="C">

<ellipse fill="white" stroke="black" cx="546.05" cy="-555.54" rx="98.82" ry="47.6"/>
<text text-anchor="middle" x="546.05" y="-565.44" font-family="Helvetica,sans-Serif" font-size="11.00">Documents excluded</text>
<text text-anchor="middle" x="546.05" y="-552.24" font-family="Helvetica,sans-Serif" font-size="11.00">(duplicates or off-topic)</text>
<text text-anchor="middle" x="546.05" y="-539.04" font-family="Helvetica,sans-Serif" font-size="11.00">(n = 2649)</text>
</g>
<!-- B&#45;&gt;C -->
<g id="edge3" class="edge" data-name="B-&gt;C">

<path fill="none" stroke="black" d="M389.54,-555.54C404.95,-555.54 420.37,-555.54 435.78,-555.54"/>
<polygon fill="black" stroke="black" points="435.49,-559.04 445.49,-555.54 435.49,-552.04 435.49,-559.04"/>
</g>
<!-- D -->
<g id="node4" class="node" pointer-events="visible" data-name="D">

<ellipse fill="white" stroke="black" cx="210.05" cy="-423.94" rx="182.17" ry="38.43"/>
<text text-anchor="middle" x="210.05" y="-427.24" font-family="Helvetica,sans-Serif" font-size="11.00">Documents skimmed at full-text level (Phase 1)</text>
<text text-anchor="middle" x="210.05" y="-414.04" font-family="Helvetica,sans-Serif" font-size="11.00">(n = 551)</text>
</g>
<!-- B&#45;&gt;D -->
<g id="edge2" class="edge" data-name="B-&gt;D">

<path fill="none" stroke="black" d="M210.05,-516.7C210.05,-503.26 210.05,-487.93 210.05,-473.71"/>
<polygon fill="black" stroke="black" points="213.55,-474.11 210.05,-464.11 206.55,-474.11 213.55,-474.11"/>
</g>
<!-- E -->
<g id="node5" class="node" pointer-events="visible" data-name="E">

<ellipse fill="white" stroke="black" cx="575.05" cy="-423.94" rx="124.68" ry="47.6"/>
<text text-anchor="middle" x="575.05" y="-433.84" font-family="Helvetica,sans-Serif" font-size="11.00">Documents excluded</text>
<text text-anchor="middle" x="575.05" y="-420.64" font-family="Helvetica,sans-Serif" font-size="11.00">(did not meet eligibility criteria)</text>
<text text-anchor="middle" x="575.05" y="-407.44" font-family="Helvetica,sans-Serif" font-size="11.00">(n = 404)</text>
</g>
<!-- D&#45;&gt;E -->
<g id="edge5" class="edge" data-name="D-&gt;E">

<path fill="none" stroke="black" d="M392.55,-423.94C407.95,-423.94 423.34,-423.94 438.73,-423.94"/>
<polygon fill="black" stroke="black" points="438.43,-427.44 448.43,-423.94 438.43,-420.44 438.43,-427.44"/>
</g>
<!-- F -->
<g id="node6" class="node" pointer-events="visible" data-name="F">

<ellipse fill="white" stroke="black" cx="210.05" cy="-292.33" rx="133.14" ry="38.43"/>
<text text-anchor="middle" x="210.05" y="-295.63" font-family="Helvetica,sans-Serif" font-size="11.00">Documents read in full (Phase 2)</text>
<text text-anchor="middle" x="210.05" y="-282.43" font-family="Helvetica,sans-Serif" font-size="11.00">(n = 147)</text>
</g>
<!-- D&#45;&gt;F -->
<g id="edge4" class="edge" data-name="D-&gt;F">

<path fill="none" stroke="black" d="M210.05,-385.1C210.05,-371.66 210.05,-356.33 210.05,-342.11"/>
<polygon fill="black" stroke="black" points="213.55,-342.51 210.05,-332.51 206.55,-342.51 213.55,-342.51"/>
</g>
<!-- G -->
<g id="node7" class="node" pointer-events="visible" data-name="G">

<ellipse fill="white" stroke="black" cx="526.05" cy="-292.33" rx="124.68" ry="47.6"/>
<text text-anchor="middle" x="526.05" y="-302.23" font-family="Helvetica,sans-Serif" font-size="11.00">Documents excluded</text>
<text text-anchor="middle" x="526.05" y="-289.03" font-family="Helvetica,sans-Serif" font-size="11.00">(did not meet eligibility criteria)</text>
<text text-anchor="middle" x="526.05" y="-275.83" font-family="Helvetica,sans-Serif" font-size="11.00">(n = 72)</text>
</g>
<!-- F&#45;&gt;G -->
<g id="edge7" class="edge" data-name="F-&gt;G">

<path fill="none" stroke="black" d="M343.67,-292.33C359.06,-292.33 374.44,-292.33 389.82,-292.33"/>
<polygon fill="black" stroke="black" points="389.51,-295.83 399.51,-292.33 389.51,-288.83 389.51,-295.83"/>
</g>
<!-- H -->
<g id="node8" class="node" pointer-events="visible" data-name="H">

<ellipse fill="white" stroke="black" cx="210.05" cy="-160.73" rx="161" ry="38.43"/>
<text text-anchor="middle" x="210.05" y="-164.03" font-family="Helvetica,sans-Serif" font-size="11.00">Documents included from database scan</text>
<text text-anchor="middle" x="210.05" y="-150.83" font-family="Helvetica,sans-Serif" font-size="11.00">(n = 75)</text>
</g>
<!-- F&#45;&gt;H -->
<g id="edge6" class="edge" data-name="F-&gt;H">

<path fill="none" stroke="black" d="M210.05,-253.5C210.05,-240.06 210.05,-224.73 210.05,-210.51"/>
<polygon fill="black" stroke="black" points="213.55,-210.9 210.05,-200.9 206.55,-210.9 213.55,-210.9"/>
</g>
<!-- J -->
<g id="node10" class="node" pointer-events="visible" data-name="J">

<ellipse fill="#e2efda" stroke="black" stroke-width="2" cx="383.05" cy="-38.47" rx="142.31" ry="38.43"/>
<text text-anchor="middle" x="383.05" y="-41.77" font-family="Helvetica,sans-Serif" font-size="11.00">Final corpus of included documents</text>
<text text-anchor="middle" x="383.05" y="-28.57" font-family="Helvetica,sans-Serif" font-size="11.00">(n = 152)</text>
</g>
<!-- H&#45;&gt;J -->
<g id="edge8" class="edge" data-name="H-&gt;J">

<path fill="none" stroke="black" d="M261.49,-123.98C280.66,-110.65 302.61,-95.39 322.52,-81.55"/>
<polygon fill="black" stroke="black" points="324.36,-84.53 330.57,-75.95 320.36,-78.79 324.36,-84.53"/>
</g>
<!-- I -->
<g id="node9" class="node" pointer-events="visible" data-name="I">

<ellipse fill="white" stroke="black" cx="556.05" cy="-160.73" rx="127.43" ry="47.6"/>
<text text-anchor="middle" x="556.05" y="-170.63" font-family="Helvetica,sans-Serif" font-size="11.00">Additional documents identified</text>
<text text-anchor="middle" x="556.05" y="-157.43" font-family="Helvetica,sans-Serif" font-size="11.00">through expert-driven input</text>
<text text-anchor="middle" x="556.05" y="-144.23" font-family="Helvetica,sans-Serif" font-size="11.00">(n = 77)</text>
</g>
<!-- I&#45;&gt;J -->
<g id="edge9" class="edge" data-name="I-&gt;J">

<path fill="none" stroke="black" d="M496.52,-118.34C479.45,-106.48 460.82,-93.53 443.68,-81.62"/>
<polygon fill="black" stroke="black" points="445.79,-78.82 435.58,-75.98 441.79,-84.56 445.79,-78.82"/>
</g>
</g>
</svg>