<?xml version="1.0" standalone="no"?>
<svg xmlns="http://www.w3.org/2000/svg" xmlns:xlink="http://www.w3.org/1999/xlink" width="556pt" height="621pt" viewBox="0.00 0.00 555.79 621.40">
<g id="graph0" class="graph" transform="translate(63.346093526645376,540.0786090344302) scale(0.846745312362527)" data-name="PRISMA">

<polygon fill="white" stroke="none" points="-4,4 -4,-617.4 551.79,-617.4 551.79,4 -4,4" style=""/>
<!-- A -->
<g id="node1" class="node" pointer-events="visible" data-name="A">

<polygon fill="white" stroke="black" points="321.28,-613.3 0.24,-613.3 0.24,-556.7 321.28,-556.7 321.28,-613.3" style=""/>
<text text-anchor="middle" x="160.76" y="-588.6" font-family="Helvetica,sans-Serif" font-size="12.00" style="">Documents identified through OpenAlex database scan</text>
<text text-anchor="middle" x="160.76" y="-574.2" font-family="Helvetica,sans-Serif" font-size="12.00" style="">(n = 3200)</text>
</g>
<!-- B -->
<g id="node2" class="node" pointer-events="visible" data-name="B">

<polygon fill="white" stroke="black" points="297.89,-506.3 23.63,-506.3 23.63,-449.7 297.89,-449.7 297.89,-506.3" style=""/>
<text text-anchor="middle" x="160.76" y="-481.6" font-family="Helvetica,sans-Serif" font-size="12.00" style="">Documents screened at title and abstract level</text>
<text text-anchor="middle" x="160.76" y="-467.2" font-family="Helvetica,sans-Serif" font-size="12.00" style="">(n = 3200)</text>
</g>
<!-- A&#45;&gt;B -->
<g id="edge1" class="edge" data-name="A-&gt;B">

<path fill="none" stroke="black" d="M160.76,-556.33C160.76,-556.33 160.76,-518.27 160.76,-518.27" style=""/>
<polygon fill="black" stroke="black" points="164.26,-518.27 160.76,-508.27 157.26,-518.27 164.26,-518.27" style=""/>
</g>
<!-- C -->
<g id="node3" class="node" pointer-events="visible" data-name="C">

<polygon fill="white" stroke="black" points="505.81,-513.7 355.71,-513.7 355.71,-442.3 505.81,-442.3 505.81,-513.7" style=""/>
<text text-anchor="middle" x="430.76" y="-488.8" font-family="Helvetica,sans-Serif" font-size="12.00" style="">Documents excluded</text>
<text text-anchor="middle" x="430.76" y="-474.4" font-family="Helvetica,sans-Serif" font-size="12.00" style="">(duplicates or off-topic)</text>
<text text-anchor="middle" x="430.76" y="-460" font-family="Helvetica,sans-Serif" font-size="12.00" style="">(n = 2649)</text>
</g>
<!-- B&#45;&gt;C -->
<g id="edge3" class="edge" data-name="B-&gt;C">

<path fill="none" stroke="black" d="M298.13,-477C298.13,-477 343.76,-477 343.76,-477" style=""/>
<polygon fill="black" stroke="black" points="343.76,-480.5 353.76,-477 343.76,-473.5 343.76,-480.5" style=""/>
</g>
<!-- D -->
<g id="node4" class="node" pointer-events="visible" data-name="D">

<polygon fill="white" stroke="black" points="300.02,-392.1 21.5,-392.1 21.5,-335.5 300.02,-335.5 300.02,-392.1" style=""/>
<text text-anchor="middle" x="160.76" y="-367.4" font-family="Helvetica,sans-Serif" font-size="12.00" style="">Documents skimmed at full-text level (Phase 1)</text>
<text text-anchor="middle" x="160.76" y="-353" font-family="Helvetica,sans-Serif" font-size="12.00" style="">(n = 551)</text>
</g>
<!-- B&#45;&gt;D -->
<g id="edge2" class="edge" data-name="B-&gt;D">

<path fill="none" stroke="black" d="M160.76,-449.48C160.76,-449.48 160.76,-403.87 160.76,-403.87" style=""/>
<polygon fill="black" stroke="black" points="164.26,-403.87 160.76,-393.87 157.26,-403.87 164.26,-403.87" style=""/>
</g>
<!-- E -->
<g id="node5" class="node" pointer-events="visible" data-name="E">

<polygon fill="white" stroke="black" points="547.82,-399.5 357.7,-399.5 357.7,-328.1 547.82,-328.1 547.82,-399.5" style=""/>
<text text-anchor="middle" x="452.76" y="-374.6" font-family="Helvetica,sans-Serif" font-size="12.00" style="">Documents excluded</text>
<text text-anchor="middle" x="452.76" y="-360.2" font-family="Helvetica,sans-Serif" font-size="12.00" style="">(did not meet eligibility criteria)</text>
<text text-anchor="middle" x="452.76" y="-345.8" font-family="Helvetica,sans-Serif" font-size="12.00" style="">(n = 404)</text>
</g>
<!-- D&#45;&gt;E -->
<g id="edge5" class="edge" data-name="D-&gt;E">

<path fill="none" stroke="black" d="M300.35,-363C300.35,-363 345.98,-363 345.98,-363" style=""/>
<polygon fill="black" stroke="black" points="345.98,-366.5 355.98,-363 345.98,-359.5 345.98,-366.5" style=""/>
</g>
<!-- F -->
<g id="node6" class="node" pointer-events="visible" data-name="F">

<polygon fill="white" stroke="black" points="262.01,-277.9 59.51,-277.9 59.51,-221.3 262.01,-221.3 262.01,-277.9" style=""/>
<text text-anchor="middle" x="160.76" y="-253.2" font-family="Helvetica,sans-Serif" font-size="12.00" style="">Documents read in full (Phase 2)</text>
<text text-anchor="middle" x="160.76" y="-238.8" font-family="Helvetica,sans-Serif" font-size="12.00" style="">(n = 147)</text>
</g>
<!-- D&#45;&gt;F -->
<g id="edge4" class="edge" data-name="D-&gt;F">

<path fill="none" stroke="black" d="M160.76,-335.28C160.76,-335.28 160.76,-289.67 160.76,-289.67" style=""/>
<polygon fill="black" stroke="black" points="164.26,-289.67 160.76,-279.67 157.26,-289.67 164.26,-289.67" style=""/>
</g>
<!-- G -->
<g id="node7" class="node" pointer-events="visible" data-name="G">

<polygon fill="white" stroke="black" points="509.82,-285.3 319.7,-285.3 319.7,-213.9 509.82,-213.9 509.82,-285.3" style=""/>
<text text-anchor="middle" x="414.76" y="-260.4" font-family="Helvetica,sans-Serif" font-size="12.00" style="">Documents excluded</text>
<text text-anchor="middle" x="414.76" y="-246" font-family="Helvetica,sans-Serif" font-size="12.00" style="">(did not meet eligibility criteria)</text>
<text text-anchor="middle" x="414.76" y="-231.6" font-family="Helvetica,sans-Serif" font-size="12.00" style="">(n = 72)</text>
</g>
<!-- F&#45;&gt;G -->
<g id="edge7" class="edge" data-name="F-&gt;G">

<path fill="none" stroke="black" d="M262.24,-249C262.24,-249 307.7,-249 307.7,-249" style=""/>
<polygon fill="black" stroke="black" points="307.7,-252.5 317.7,-249 307.7,-245.5 307.7,-252.5" style=""/>
</g>
<!-- H -->
<g id="node8" class="node" pointer-events="visible" data-name="H">

<polygon fill="white" stroke="black" points="287.01,-163.7 34.51,-163.7 34.51,-107.1 287.01,-107.1 287.01,-163.7" style=""/>
<text text-anchor="middle" x="160.76" y="-139" font-family="Helvetica,sans-Serif" font-size="12.00" style="">Documents included from systematic scan</text>
<text text-anchor="middle" x="160.76" y="-124.6" font-family="Helvetica,sans-Serif" font-size="12.00" style="">(n = 75)</text>
</g>
<!-- F&#45;&gt;H -->
<g id="edge6" class="edge" data-name="F-&gt;H">

<path fill="none" stroke="black" d="M160.76,-221.08C160.76,-221.08 160.76,-175.47 160.76,-175.47" style=""/>
<polygon fill="black" stroke="black" points="164.26,-175.47 160.76,-165.47 157.26,-175.47 164.26,-175.47" style=""/>
</g>
<!-- J -->
<g id="node10" class="node" pointer-events="visible" data-name="J">

<polygon fill="#e2efda" stroke="black" stroke-width="2" points="409.03,-56.7 192.49,-56.7 192.49,-0.1 409.03,-0.1 409.03,-56.7" style=""/>
<text text-anchor="middle" x="300.76" y="-32" font-family="Helvetica,sans-Serif" font-size="12.00" style="">Final corpus of included documents</text>
<text text-anchor="middle" x="300.76" y="-17.6" font-family="Helvetica,sans-Serif" font-size="12.00" style="">(n = 152)</text>
</g>
<!-- H&#45;&gt;J -->
<g id="edge8" class="edge" data-name="H-&gt;J">

<path fill="none" stroke="black" d="M239.76,-106.73C239.76,-106.73 239.76,-69.04 239.76,-69.04" style=""/>
<polygon fill="black" stroke="black" points="243.26,-69.04 239.76,-59.04 236.26,-69.04 243.26,-69.04" style=""/>
</g>
<!-- I -->
<g id="node9" class="node" pointer-events="visible" data-name="I">

<polygon fill="white" stroke="black" points="538.87,-171.1 344.65,-171.1 344.65,-99.7 538.87,-99.7 538.87,-171.1" style=""/>
<text text-anchor="middle" x="441.76" y="-146.2" font-family="Helvetica,sans-Serif" font-size="12.00" style="">Additional documents identified</text>
<text text-anchor="middle" x="441.76" y="-131.8" font-family="Helvetica,sans-Serif" font-size="12.00" style="">through expert-driven input</text>
<text text-anchor="middle" x="441.76" y="-117.4" font-family="Helvetica,sans-Serif" font-size="12.00" style="">(n = 77)</text>
</g>
<!-- I&#45;&gt;J -->
<g id="edge9" class="edge" data-name="I-&gt;J">

<path fill="none" stroke="black" d="M376.93,-99.47C376.93,-99.47 376.93,-69.17 376.93,-69.17" style=""/>
<polygon fill="black" stroke="black" points="380.43,-69.17 376.93,-59.17 373.43,-69.17 380.43,-69.17" style=""/>
</g>
</g>
</svg>