<?xml version="1.0" standalone="no"?>
<svg xmlns="http://www.w3.org/2000/svg" xmlns:xlink="http://www.w3.org/1999/xlink" width="558pt" height="621pt" viewBox="0.00 0.00 557.79 621.4">
<g id="graph0" class="graph" transform="translate(90.32981353359361,554.4581469444963) scale(0.8467453123625271)" data-name="PRISMA">

<polygon fill="white" stroke="none" points="-4,4 -4,-617.4 553.79,-617.4 553.79,4 -4,4"/>
<!-- A -->
<g id="node1" class="node" pointer-events="visible" data-name="A">

<polygon fill="white" stroke="black" points="321.28,-613.3 0.24,-613.3 0.24,-556.7 321.28,-556.7 321.28,-613.3"/>
<text text-anchor="middle" x="160.76" y="-588.6" font-family="Helvetica,sans-Serif" font-size="12.00">Documents identified through OpenAlex database scan</text>
<text text-anchor="middle" x="160.76" y="-574.2" font-family="Helvetica,sans-Serif" font-size="12.00">(n = 3200)</text>
</g>
<!-- B -->
<g id="node2" class="node" pointer-events="visible" data-name="B">

<polygon fill="white" stroke="black" points="297.89,-506.3 23.63,-506.3 23.63,-449.7 297.89,-449.7 297.89,-506.3"/>
<text text-anchor="middle" x="160.76" y="-481.6" font-family="Helvetica,sans-Serif" font-size="12.00">Documents screened at title and abstract level</text>
<text text-anchor="middle" x="160.76" y="-467.2" font-family="Helvetica,sans-Serif" font-size="12.00">(n = 3200)</text>
</g>
<!-- A&#45;&gt;B -->
<g id="edge1" class="edge" data-name="A-&gt;B">

<path fill="none" stroke="black" d="M160.76,-556.33C160.76,-556.33 160.76,-518.27 160.76,-518.27"/>
<polygon fill="black" stroke="black" points="164.26,-518.27 160.76,-508.27 157.26,-518.27 164.26,-518.27"/>
</g>
<!-- C -->
<g id="node3" class="node" pointer-events="visible" data-name="C">

<polygon fill="white" stroke="black" points="505.81,-513.7 355.71,-513.7 355.71,-442.3 505.81,-442.3 505.81,-513.7"/>
<text text-anchor="middle" x="430.76" y="-488.8" font-family="Helvetica,sans-Serif" font-size="12.00">Documents excluded</text>
<text text-anchor="middle" x="430.76" y="-474.4" font-family="Helvetica,sans-Serif" font-size="12.00">(duplicates or off-topic)</text>
<text text-anchor="middle" x="430.76" y="-460" font-family="Helvetica,sans-Serif" font-size="12.00">(n = 2649)</text>
</g>
<!-- B&#45;&gt;C -->
<g id="edge3" class="edge" data-name="B-&gt;C">

<path fill="none" stroke="black" d="M298.13,-477C298.13,-477 343.76,-477 343.76,-477"/>
<polygon fill="black" stroke="black" points="343.76,-480.5 353.76,-477 343.76,-473.5 343.76,-480.5"/>
</g>
<!-- D -->
<g id="node4" class="node" pointer-events="visible" data-name="D">

<polygon fill="white" stroke="black" points="302.05,-392.1 19.46,-392.1 19.46,-335.5 302.05,-335.5 302.05,-392.1"/>
<text text-anchor="middle" x="160.76" y="-367.4" font-family="Helvetica,sans-Serif" font-size="12.00">Documents evaluated at full-text level (Phase 1)</text>
<text text-anchor="middle" x="160.76" y="-353" font-family="Helvetica,sans-Serif" font-size="12.00">(n = 551)</text>
</g>
<!-- B&#45;&gt;D -->
<g id="edge2" class="edge" data-name="B-&gt;D">

<path fill="none" stroke="black" d="M160.76,-449.48C160.76,-449.48 160.76,-403.87 160.76,-403.87"/>
<polygon fill="black" stroke="black" points="164.26,-403.87 160.76,-393.87 157.26,-403.87 164.26,-403.87"/>
</g>
<!-- E -->
<g id="node5" class="node" pointer-events="visible" data-name="E">

<polygon fill="white" stroke="black" points="549.82,-399.5 359.7,-399.5 359.7,-328.1 549.82,-328.1 549.82,-399.5"/>
<text text-anchor="middle" x="454.76" y="-374.6" font-family="Helvetica,sans-Serif" font-size="12.00">Documents excluded</text>
<text text-anchor="middle" x="454.76" y="-360.2" font-family="Helvetica,sans-Serif" font-size="12.00">(did not meet eligibility criteria)</text>
<text text-anchor="middle" x="454.76" y="-345.8" font-family="Helvetica,sans-Serif" font-size="12.00">(n = 404)</text>
</g>
<!-- D&#45;&gt;E -->
<g id="edge5" class="edge" data-name="D-&gt;E">

<path fill="none" stroke="black" d="M302.16,-363C302.16,-363 347.94,-363 347.94,-363"/>
<polygon fill="black" stroke="black" points="347.94,-366.5 357.94,-363 347.94,-359.5 347.94,-366.5"/>
</g>
<!-- F -->
<g id="node6" class="node" pointer-events="visible" data-name="F">

<polygon fill="white" stroke="black" points="262.01,-277.9 59.51,-277.9 59.51,-221.3 262.01,-221.3 262.01,-277.9"/>
<text text-anchor="middle" x="160.76" y="-253.2" font-family="Helvetica,sans-Serif" font-size="12.00">Documents read in full (Phase 2)</text>
<text text-anchor="middle" x="160.76" y="-238.8" font-family="Helvetica,sans-Serif" font-size="12.00">(n = 147)</text>
</g>
<!-- D&#45;&gt;F -->
<g id="edge4" class="edge" data-name="D-&gt;F">

<path fill="none" stroke="black" d="M160.76,-335.28C160.76,-335.28 160.76,-289.67 160.76,-289.67"/>
<polygon fill="black" stroke="black" points="164.26,-289.67 160.76,-279.67 157.26,-289.67 164.26,-289.67"/>
</g>
<!-- G -->
<g id="node7" class="node" pointer-events="visible" data-name="G">

<polygon fill="white" stroke="black" points="509.82,-285.3 319.7,-285.3 319.7,-213.9 509.82,-213.9 509.82,-285.3"/>
<text text-anchor="middle" x="414.76" y="-260.4" font-family="Helvetica,sans-Serif" font-size="12.00">Documents excluded</text>
<text text-anchor="middle" x="414.76" y="-246" font-family="Helvetica,sans-Serif" font-size="12.00">(did not meet eligibility criteria)</text>
<text text-anchor="middle" x="414.76" y="-231.6" font-family="Helvetica,sans-Serif" font-size="12.00">(n = 72)</text>
</g>
<!-- F&#45;&gt;G -->
<g id="edge7" class="edge" data-name="F-&gt;G">

<path fill="none" stroke="black" d="M262.24,-249C262.24,-249 307.7,-249 307.7,-249"/>
<polygon fill="black" stroke="black" points="307.7,-252.5 317.7,-249 307.7,-245.5 307.7,-252.5"/>
</g>
<!-- H -->
<g id="node8" class="node" pointer-events="visible" data-name="H">

<polygon fill="white" stroke="black" points="287.01,-163.7 34.51,-163.7 34.51,-107.1 287.01,-107.1 287.01,-163.7"/>
<text text-anchor="middle" x="160.76" y="-139" font-family="Helvetica,sans-Serif" font-size="12.00">Documents included from systematic scan</text>
<text text-anchor="middle" x="160.76" y="-124.6" font-family="Helvetica,sans-Serif" font-size="12.00">(n = 75)</text>
</g>
<!-- F&#45;&gt;H -->
<g id="edge6" class="edge" data-name="F-&gt;H">

<path fill="none" stroke="black" d="M160.76,-221.08C160.76,-221.08 160.76,-175.47 160.76,-175.47"/>
<polygon fill="black" stroke="black" points="164.26,-175.47 160.76,-165.47 157.26,-175.47 164.26,-175.47"/>
</g>
<!-- J -->
<g id="node10" class="node" pointer-events="visible" data-name="J">

<polygon fill="#e2efda" stroke="black" stroke-width="2" points="411.02,-56.7 192.5,-56.7 192.5,-0.1 411.02,-0.1 411.02,-56.7"/>
<text text-anchor="middle" x="301.76" y="-32" font-family="Helvetica,sans-Serif" font-size="12.00">Final corpus of included Documents</text>
<text text-anchor="middle" x="301.76" y="-17.6" font-family="Helvetica,sans-Serif" font-size="12.00">(n = 152)</text>
</g>
<!-- H&#45;&gt;J -->
<g id="edge8" class="edge" data-name="H-&gt;J">

<path fill="none" stroke="black" d="M239.76,-106.73C239.76,-106.73 239.76,-69.04 239.76,-69.04"/>
<polygon fill="black" stroke="black" points="243.26,-69.04 239.76,-59.04 236.26,-69.04 243.26,-69.04"/>
</g>
<!-- I -->
<g id="node9" class="node" pointer-events="visible" data-name="I">

<polygon fill="white" stroke="black" points="540.86,-171.1 344.66,-171.1 344.66,-99.7 540.86,-99.7 540.86,-171.1"/>
<text text-anchor="middle" x="442.76" y="-146.2" font-family="Helvetica,sans-Serif" font-size="12.00">Additional Documents identified</text>
<text text-anchor="middle" x="442.76" y="-131.8" font-family="Helvetica,sans-Serif" font-size="12.00">through expert-driven input</text>
<text text-anchor="middle" x="442.76" y="-117.4" font-family="Helvetica,sans-Serif" font-size="12.00">(n = 77)</text>
</g>
<!-- I&#45;&gt;J -->
<g id="edge9" class="edge" data-name="I-&gt;J">

<path fill="none" stroke="black" d="M377.93,-99.47C377.93,-99.47 377.93,-69.17 377.93,-69.17"/>
<polygon fill="black" stroke="black" points="381.43,-69.17 377.93,-59.17 374.43,-69.17 381.43,-69.17"/>
</g>
</g>
</svg>